<?xml version="1.0" encoding="utf-8"?>
<svg id="svg3391" width="512" height="512" viewBox="-2 -2 510 510" xmlns="http://www.w3.org/2000/svg">
  <path style="fill: rgb(49, 183, 218);" d="M 504.612 384.151 C 504.612 399.641 494.77 417.146 476.559 424.081 C 458.347 431.015 299.833 493.592 278.329 499.977 C 256.825 506.363 248.354 506.805 230.636 499.977 C 212.919 493.15 42.885 431.739 28.051 424.074 C 13.218 416.412 0 399.641 0 384.147 L 0 28.051 C 0 12.561 12.561 0 28.051 0 L 476.559 0 C 492.049 0 504.612 12.561 504.612 28.051 L 504.612 384.151 Z" id="path6170"/>
  <path d="M 62.471 63.57 L 442.139 63.57 L 442.139 443.234 L 62.471 443.234 Z" fill="none"/>
  <path d="M 251.305 73.294 C 163.985 73.294 93.11 144.17 93.11 231.488 C 93.11 318.813 163.985 389.685 251.305 389.685 C 338.629 389.685 409.504 318.813 409.504 231.488 C 409.504 144.17 338.629 73.294 251.305 73.294 Z M 251.305 302.678 C 211.92 302.678 180.125 270.879 180.125 231.488 C 180.125 192.099 211.92 160.305 251.305 160.305 C 290.694 160.305 322.493 192.099 322.493 231.488 C 322.493 270.879 290.694 302.678 251.305 302.678 Z M 251.305 215.673 C 242.604 215.673 235.488 222.786 235.488 231.488 C 235.488 240.191 242.604 247.309 251.305 247.309 C 260.006 247.309 267.126 240.191 267.126 231.488 C 267.126 222.786 260.006 215.673 251.305 215.673 Z" style="fill: rgb(255, 255, 255);"/>
  <path d="M -37.886 26.1 L -37.886 26.1 Z" style="stroke: black; fill: none;"/>
  <path d="M 21.41 24.502 Z" style="stroke: black; fill: none;"/>
  <path d="M -30.252 22.727 L -30.252 22.727 Z" style="stroke: black; fill: none;"/>
</svg>